<svg id="Layer_1" data-name="Layer 1" xmlns="http://www.w3.org/2000/svg" viewBox="0 0 1338 1500"><defs><style>.cls-1{fill:#036eb0;}.cls-2{fill:#feffff;}</style></defs><title>Ngôi nhà sát viền</title><path class="cls-1" d="M886.19,577.62C843.78,529.36,686.48,391,624.3,336.69a69.15,69.15,0,0,0-58.76-15.75c-81,15.91-286.41,57.12-347.27,77.71-47.24,16-88.27,62.26-99,102.33C113.64,522,4.06,977.24.18,998.82c-3.7,20.6,10,46.47,29.34,50.82,7.91,1.78,113.94,30.33,173.62,46.44A41.48,41.48,0,0,0,254,1066.76l32.2-120.15A41.48,41.48,0,0,1,337,917.27l187,50.11a41.49,41.49,0,0,1,29.34,50.81l-32.2,120.15a41.49,41.49,0,0,0,29.4,50.83c59.73,15.9,165.84,44.18,173.58,46.6,18.93,5.9,43.72-9.66,50.81-29.34,7.44-20.63,140.18-469.7,145.8-490.68C931.51,675.67,919.11,615.08,886.19,577.62Z"/><path class="cls-1" d="M1063.49,599.88c-.29-.28-297.14-273.76-407-375.91A69.12,69.12,0,0,0,594,207.21c-146.17,33.56-540,122-540.39,122.06C-7.34,343,4.37,406.13,65.3,392.44c124.63-28,396.24-89.57,509.86-116.27a69.17,69.17,0,0,1,63.19,16.93c85,79.93,289.49,269.07,383.42,355.62C1067.7,691,1109.42,642.2,1063.49,599.88Z"/><path class="cls-1" d="M191.71,170.12c-2.64,17.88-7.24,90.46-7.56,90.53,59-12.52,141.12-31.16,224-48.8,9.55-2,19-7.71,22.24-17.1,2.35-6.8,1.1-14.44-1.93-21.06-12.06-26.31-115.65-82.65-141.52-86-28.35-3.63-55.6,0-73.67,23.37C200.2,127.92,194.75,149.52,191.71,170.12Z"/><path class="cls-1" d="M656.79,45.49a25.46,25.46,0,0,1,11.58,9.24A22.05,22.05,0,0,1,672,68.88a21.64,21.64,0,0,1-10.17,17.44q-9.45,6.24-24.27,5.28l-29.11-1.9a4.12,4.12,0,0,1-3-1.31,4,4,0,0,1-.92-3.07l5.31-81.47a4.09,4.09,0,0,1,1.31-3A4.27,4.27,0,0,1,614.28,0L641,1.76q14.69,1,22,7.56t6.56,18.26a19.45,19.45,0,0,1-3.89,10.84A23.9,23.9,0,0,1,656.79,45.49ZM641.09,11.3,620.67,10l-1.94,29.65L639.15,41q8.7.57,13.66-3t5.43-10.57Q658.72,20,654.35,16T641.09,11.3Zm-3.33,70.64q21.9,1.43,23-14.61a14.53,14.53,0,0,0-4.56-12.07q-5-4.8-13.79-5.37l-24.19-1.58-2.1,32.21Z"/><path class="cls-1" d="M702.6,67.19q-1.3,10.91,4.62,18.57a25.49,25.49,0,0,0,15.66,9.64,32.47,32.47,0,0,0,22.4-3.46q3.87-2.11,5.82,1.17l1.15,1.48q2,3.15-1.36,5.37a35,35,0,0,1-14.81,5.27,46.93,46.93,0,0,1-15.1-.43,39.18,39.18,0,0,1-16.72-7.61A33.91,33.91,0,0,1,693.5,82.27a35.42,35.42,0,0,1-1.33-20q3.09-15.36,14.93-23.61t26.45-5.3q14.24,2.88,21.72,13.9a33.28,33.28,0,0,1,5.29,12.88,37.41,37.41,0,0,1-.16,14.26,4.12,4.12,0,0,1-1.92,2.85,4.86,4.86,0,0,1-3.58.52Zm29.06-24.44a23.1,23.1,0,0,0-16.56,2.34q-7.36,4.2-10.56,13.2l45.81,9.25q.54-8.85-3.48-14.83Q742.31,44.91,731.66,42.75Z"/><path class="cls-1" d="M877.61,150.55c.06,1.39-.23,2.3-.89,2.74a3,3,0,0,1-2.75-.06l-5-2a4.72,4.72,0,0,1-1.33-.75,2.78,2.78,0,0,1-.72-1.2,7.54,7.54,0,0,1-.31-1.3c0-.33-.08-1-.14-1.91l-.66-17.61-44.19-17.89-12.86,12.14c-.8.79-1.39,1.34-1.76,1.65a3.23,3.23,0,0,1-1.46.65,3.71,3.71,0,0,1-2-.28l-4.76-1.93c-1.17-.47-1.84-1.1-2-1.87s.25-1.63,1.27-2.58l68-63.25q1.9-2,4-1.13l.88.35c1.37.56,2.14,1.79,2.29,3.7ZM829,103.39l36.55,14.79-1.82-47.87Z"/><path class="cls-1" d="M925.23,181.6q-3.32-2.07-1.27-5.34l43.51-69.4q2.19-3.48,5.51-1.41l2.92,1.83c2.17,1.37,2.53,3.21,1.07,5.54l-40.36,64.36,33.76,21.17a4.42,4.42,0,0,1,2,2.47,3.56,3.56,0,0,1-.54,3l-1.11,1.77a3.61,3.61,0,0,1-2.48,1.8,4.45,4.45,0,0,1-3.11-.76Z"/><path class="cls-1" d="M984.88,221.47a3.51,3.51,0,0,1-1.55-2.5,4.23,4.23,0,0,1,.95-2.92l37-49.55a4.13,4.13,0,0,1,2.54-1.77,3.57,3.57,0,0,1,2.82.8l2.76,2.06a3.65,3.65,0,0,1,1.59,2.49,4,4,0,0,1-1,3l-37,49.56a4.09,4.09,0,0,1-2.55,1.72,3.64,3.64,0,0,1-2.87-.79Zm57.22-63.41a8.59,8.59,0,1,1,3.92-15.41,8.63,8.63,0,0,1-3.92,15.41Z"/><path class="cls-1" d="M1044,260.13c-.36,2.36-2,3.31-5,2.83a22,22,0,0,1-12.11-5.37q-7.13-6.1-7.71-14.15t6.35-16.16l26.16-30.59-5.9-5a4,4,0,0,1-1.54-2.61,3.55,3.55,0,0,1,1-2.76l1.1-1.29a3.56,3.56,0,0,1,2.57-1.39,4,4,0,0,1,2.82,1.12l5.9,5.05L1070.25,175c1.29-1.51,3.1-1.71,5.42-.62l2.69,1.33q4,1.89.77,5.64l-13.21,15.44,13.34,11.41a4.26,4.26,0,0,1,1.62,2.68,3.48,3.48,0,0,1-1,2.78l-1.1,1.28a3.52,3.52,0,0,1-2.6,1.38,4.23,4.23,0,0,1-2.89-1.19L1060,203.76,1034.1,234q-4.26,5-4.09,9.25a10.4,10.4,0,0,0,4.06,7.61,15.16,15.16,0,0,0,7,2.9c2.69.46,3.78,2,3.29,4.68Z"/><path class="cls-1" d="M1081.26,297.15q-.81,3.48-5.2,2.43a22,22,0,0,1-11.65-6.31q-6.63-6.63-6.59-14.71t7.6-15.61l28.47-28.45L1088.4,229a4,4,0,0,1-1.34-2.72,3.58,3.58,0,0,1,1.2-2.68l1.19-1.19a3.56,3.56,0,0,1,2.67-1.19,4,4,0,0,1,2.73,1.34l5.49,5.49,13.7-13.7c1.4-1.4,3.22-1.47,5.45-.19l2.58,1.53q3.81,2.19.33,5.68L1108,235.75l12.41,12.42a4.27,4.27,0,0,1,1.41,2.79,3.5,3.5,0,0,1-1.17,2.7l-1.19,1.19a3.5,3.5,0,0,1-2.7,1.17,4.32,4.32,0,0,1-2.8-1.41l-12.41-12.42-28.18,28.17q-4.64,4.62-4.8,8.9a10.4,10.4,0,0,0,3.46,7.9,14.94,14.94,0,0,0,6.78,3.44q4,1,2.91,4.92Z"/><path class="cls-1" d="M1088,316.46a3.47,3.47,0,0,1-1-2.77,4.16,4.16,0,0,1,1.54-2.64l67.77-59.14c1.5-1.3,3.31-1.25,5.45.18l2.42,1.74q3.71,2.5,0,5.7l-68.49,59.76a4,4,0,0,1-2.85,1.14,3.56,3.56,0,0,1-2.63-1.37Z"/><path class="cls-1" d="M1138.39,327.37q-8.36,7.11-9.22,16.77a25.49,25.49,0,0,0,4.94,17.71,32.48,32.48,0,0,0,18.79,12.67q4.27,1.08,3.48,4.82l-.16,1.86q-.69,3.66-4.65,3a35,35,0,0,1-14.45-6.19,47.21,47.21,0,0,1-10.79-10.57,39.38,39.38,0,0,1-7.1-16.95,33.9,33.9,0,0,1,2.24-18.26,35.42,35.42,0,0,1,12.61-15.59q12.7-9.17,27-7.18t23,14.08q8.49,11.78,6.5,24.95a33.12,33.12,0,0,1-4.87,13,37.13,37.13,0,0,1-9.8,10.36,4.1,4.1,0,0,1-3.35.79,4.82,4.82,0,0,1-3-2.06Zm37.92,1.8a23,23,0,0,0-13.74-9.53q-8.25-1.92-16.7,2.51l27.33,37.9q6.4-6.1,7.51-13.24Q1182.68,338,1176.31,329.17Z"/><path class="cls-1" d="M1209.26,507.78q-1.35,1.58-2.52,1.38c-.78-.14-1.43-.78-2-1.93l-2.25-4.91a4.79,4.79,0,0,1-.45-1.47,2.74,2.74,0,0,1,.31-1.36,6.38,6.38,0,0,1,.65-1.16c.2-.26.61-.76,1.22-1.48l11.6-13.26L1196,440.24h-17.68c-1.13,0-1.93,0-2.42,0a3.26,3.26,0,0,1-1.51-.54,3.52,3.52,0,0,1-1.28-1.6l-2.14-4.66a2.89,2.89,0,0,1-.18-2.74c.41-.68,1.3-1,2.69-1l92.87.69a3.45,3.45,0,0,1,3.71,1.94l.39.86q.93,2-.87,4.26Zm-3-67.7,16.42,35.85,31.54-36.06Z"/><path class="cls-1" d="M1300.15,587q3,12.33-2.94,21.37t-18.49,12.1l-37,9a4.09,4.09,0,0,1-3.06-.29,3.64,3.64,0,0,1-1.71-2.43l-.85-3.48a3.27,3.27,0,0,1,.42-2.85,4.34,4.34,0,0,1,2.6-1.57l36-8.82q8.92-2.17,13-8.19t2.07-14.42q-2.09-8.52-8.77-12.69t-15.48-2l-36,8.82a4.24,4.24,0,0,1-3-.23,3.4,3.4,0,0,1-1.69-2.37l-.85-3.48a3.48,3.48,0,0,1,.4-2.91,4.16,4.16,0,0,1,2.58-1.64l36-8.81q8.92-2.19,13-8.24t2.06-14.44q-2.09-8.52-8.77-12.69t-15.48-2l-36,8.81a4.24,4.24,0,0,1-3-.22,3.52,3.52,0,0,1-1.71-2.44l-.82-3.34a3.53,3.53,0,0,1,.4-2.92,4.18,4.18,0,0,1,2.59-1.64l60.08-14.7a4.14,4.14,0,0,1,3.09.25,3.57,3.57,0,0,1,1.66,2.41l.66,2.69a3.52,3.52,0,0,1-.37,2.9,4.11,4.11,0,0,1-2.62,1.65l-5.51,1.35q12.22,5.07,15.8,19.63a28.57,28.57,0,0,1-.06,15.1,23.84,23.84,0,0,1-7.66,11.61,26.3,26.3,0,0,1,12.28,7.42A29.9,29.9,0,0,1,1300.15,587Z"/><path class="cls-1" d="M1312.32,683.84a34.61,34.61,0,0,1-3.65,18.48,33.18,33.18,0,0,1-12.25,13.26,38.64,38.64,0,0,1-18,5.56,39.25,39.25,0,0,1-14.25-1.63,35.06,35.06,0,0,1-12-6.35,33.35,33.35,0,0,1-8.45-10.57,35,35,0,0,1-3.8-14q-1-15.43,9.12-25.85l-5.12.34a4.13,4.13,0,0,1-3-.79,3.51,3.51,0,0,1-1.26-2.66l-.2-3a3.48,3.48,0,0,1,.9-2.8,4.14,4.14,0,0,1,2.83-1.17l89.75-5.93c2-.13,3.38,1,4.22,3.44l.87,2.86q1.43,4.23-3.42,4.55l-34.1,2.26Q1311.35,669.08,1312.32,683.84Zm-62.61,2.92q.74,11.25,8.81,17.59a27.08,27.08,0,0,0,19.18,5.6q11.13-.74,18.28-8.08t6.42-18.59a26.4,26.4,0,0,0-2.31-9.32,24.62,24.62,0,0,0-5.37-7.6,21.3,21.3,0,0,0-8.65-4.88,30.34,30.34,0,0,0-11.64-1.05q-12.59,1.1-19,8.49A23.79,23.79,0,0,0,1249.71,686.76Z"/><path class="cls-1" d="M1312.5,773.63q-.82,13.68-8.62,20.83t-21.41,6.34l-38.42-2.29c-2.66-.15-3.91-1.42-3.77-3.81l.17-2.76a3.47,3.47,0,0,1,1.24-2.7,4.23,4.23,0,0,1,3-.77l5.13.3a30.82,30.82,0,0,1-7.29-11.12,31.37,31.37,0,0,1-2.09-13.31q.72-12.08,7.33-19.05t16.78-6.38a20.3,20.3,0,0,1,16.24,9.05q5.85,8.43,5.07,21.58a48.11,48.11,0,0,1-6.15,20.54l5.46.32a15.42,15.42,0,0,0,12.44-4.47q4.89-4.92,5.39-13.41a33.53,33.53,0,0,0-5.9-21.25c-1.37-2-1-3.76,1.25-5.21l1.13-.81a4.07,4.07,0,0,1,6.07,1.51,47.57,47.57,0,0,1,5.9,13.48A45.52,45.52,0,0,1,1312.5,773.63Zm-62.74-7.45a27.68,27.68,0,0,0,1.42,10.74,20.37,20.37,0,0,0,5.61,8.65,14.34,14.34,0,0,0,9,3.82l4.38.26q6-10.47,6.61-20.24.51-8.43-3.13-13.82a12.38,12.38,0,0,0-10-5.76A11.18,11.18,0,0,0,1254,754Q1250.21,758.49,1249.76,766.18Z"/><path class="cls-1" d="M1232.07,841.17a36.14,36.14,0,0,1,5.09-13.25,28.9,28.9,0,0,1,9.95-9.93c2.6-1.35,4.49-1,5.69,1.21l.85,1.1a9,9,0,0,1,.92,2.1,2.7,2.7,0,0,1-.25,1.88,5,5,0,0,1-1.77,1.86q-9.25,5.86-10.92,16-1.05,6.33,1,10.64a8.38,8.38,0,0,0,6.5,5,10.15,10.15,0,0,0,4.91-.32,10.57,10.57,0,0,0,4.23-2.86,37.26,37.26,0,0,0,3.43-4.16c1-1.37,2.12-3.18,3.49-5.41.31-.5.53-.88.66-1.13q2.07-3.42,3.43-5.42a50.35,50.35,0,0,1,3.64-4.64,20.38,20.38,0,0,1,4.34-3.93,16.88,16.88,0,0,1,5-2,14.94,14.94,0,0,1,6.09-.19,17.19,17.19,0,0,1,12.75,8.57q4.15,7.15,2.43,17.61a27.53,27.53,0,0,1-12.14,19.28c-2.33,1.67-4.32,1.44-6-.71l-.78-1.08q-2.5-3.5.7-5.91a26.31,26.31,0,0,0,6.24-6.12,18.49,18.49,0,0,0,2.67-7.26c.59-3.6.27-6.61-1-9a7.58,7.58,0,0,0-5.79-4.27,7.39,7.39,0,0,0-6.57,2.06,50.57,50.57,0,0,0-6.89,9,126.23,126.23,0,0,1-8.08,11.67q-6.2,7.19-13.83,7.51a22.12,22.12,0,0,1-4.61-.28,17.34,17.34,0,0,1-13-9Q1230.25,852.17,1232.07,841.17Z"/><path class="cls-1" d="M1218.78,903.73a36.44,36.44,0,0,1,6.28-12.74,29.05,29.05,0,0,1,10.82-9q4.06-1.66,5.55,1.73l.74,1.17a8.75,8.75,0,0,1,.73,2.17,2.76,2.76,0,0,1-.41,1.85,4.85,4.85,0,0,1-1.94,1.69q-9.75,5-12.33,14.94-1.62,6.21,0,10.68a8.38,8.38,0,0,0,6,5.61,10.18,10.18,0,0,0,4.92.13,10.57,10.57,0,0,0,4.48-2.47,34.79,34.79,0,0,0,3.78-3.83c1.08-1.28,2.4-3,4-5.07.36-.46.61-.82.77-1.06,1.58-2.14,2.88-3.84,3.9-5.08a52.78,52.78,0,0,1,4-4.29,20.54,20.54,0,0,1,4.68-3.53,16.83,16.83,0,0,1,5.12-1.56,15,15,0,0,1,6.08.36,17.18,17.18,0,0,1,11.92,9.7q3.49,7.5.83,17.76A27.55,27.55,0,0,1,1274.89,941c-2.47,1.46-4.44,1-5.89-1.25l-.67-1.15c-1.46-2.47-1-4.41,1.23-5.82a26.39,26.39,0,0,0,6.78-5.53,18.21,18.21,0,0,0,3.31-7q1.38-5.29-.15-9.08a7.61,7.61,0,0,0-5.38-4.78,7.36,7.36,0,0,0-6.73,1.46,49.88,49.88,0,0,0-7.68,8.32,125.67,125.67,0,0,1-9.11,10.89q-6.81,6.6-14.46,6.22a21.5,21.5,0,0,1-4.56-.7,17.3,17.3,0,0,1-12.11-10.17Q1216,914.53,1218.78,903.73Z"/><path class="cls-1" d="M1265.57,996.29q-4.78,12.86-14.34,17.4t-22.33-.21l-36.07-13.43q-3.74-1.39-2.49-4.74l1-2.6a3.45,3.45,0,0,1,2-2.21,4.21,4.21,0,0,1,3,.12l4.81,1.79a30.94,30.94,0,0,1-3.71-12.77,31.42,31.42,0,0,1,1.9-13.34q4.22-11.32,12.58-16.07t17.91-1.18a20.28,20.28,0,0,1,12.88,13.4q3.13,9.78-1.46,22.12a48.11,48.11,0,0,1-11.9,17.84l5.13,1.91a15.45,15.45,0,0,0,13.2-.64q6.12-3.27,9.09-11.24a33.58,33.58,0,0,0,.57-22.05c-.72-2.34.19-3.87,2.72-4.61l1.32-.44a4.34,4.34,0,0,1,3.52.41,4.39,4.39,0,0,1,1.84,2.8,47.81,47.81,0,0,1,1.7,14.62A45.62,45.62,0,0,1,1265.57,996.29Zm-57.82-25.49a28,28,0,0,0-1.78,10.69,20.49,20.49,0,0,0,2.83,9.92,14.34,14.34,0,0,0,7.53,6.29l4.11,1.54q8.83-8.25,12.25-17.42,3-7.92,1-14.13a12.4,12.4,0,0,0-7.85-8.44,11.22,11.22,0,0,0-10.48,1.15Q1210.44,963.6,1207.75,970.8Z"/><path class="cls-1" d="M1239.35,1119.81q-1,4.44-5.32,2.19l-80.71-41.79a4.18,4.18,0,0,1-2.13-2.21,3.48,3.48,0,0,1,.3-2.92l1.46-2.82a3.5,3.5,0,0,1,2.21-1.93,4.15,4.15,0,0,1,3,.47l4.68,2.42a32.64,32.64,0,0,1,1.81-27.28,34.79,34.79,0,0,1,9.07-11.27,33.26,33.26,0,0,1,12-6.31,35,35,0,0,1,13.53-1,39,39,0,0,1,13.71,4.21,38.52,38.52,0,0,1,14.25,12.29,33.16,33.16,0,0,1,5.92,17.05,34.68,34.68,0,0,1-4.05,18.4q-6.84,13.18-20.39,17.35l29.5,15.28q2.7,1.39,1.89,5Zm-66.42-68.38a26.75,26.75,0,0,0-2.89,9.26,24,24,0,0,0,.73,9.24,21.83,21.83,0,0,0,4.89,8.62,32.12,32.12,0,0,0,9.32,7,31.62,31.62,0,0,0,11.17,3.54,22.27,22.27,0,0,0,9.91-1,23.59,23.59,0,0,0,7.93-4.75,26.92,26.92,0,0,0,5.84-7.67q5.14-9.95,1.54-19.57a29,29,0,0,0-33.34-17.27Q1178.09,1041.48,1172.93,1051.43Z"/><path class="cls-1" d="M1110.33,1143.31a39.7,39.7,0,0,1,21.53-30.93,34.45,34.45,0,0,1,18.27-3.36,38,38,0,0,1,30.25,21.06,34.33,34.33,0,0,1,3.18,18.3,39.6,39.6,0,0,1-21.53,30.93,34.42,34.42,0,0,1-18.26,3.37,38.09,38.09,0,0,1-30.26-21.07A34.43,34.43,0,0,1,1110.33,1143.31Zm31.67-23.45q-10.27,1.65-16.72,10.9t-4.42,19.47q2,10.21,11.39,16.73t19.64,4.88q10.29-1.65,16.73-10.91a24.65,24.65,0,0,0,4.38-19.41q-2-10.26-11.35-16.79T1142,1119.86Z"/><path class="cls-1" d="M1114.58,1243.16c-2,1.35-3.76.87-5.27-1.45l-1.33-1.86c-1.32-2-.86-3.85,1.39-5.42a16,16,0,0,0,3.79-3.14,14,14,0,0,0,3.29-13q-1.67-7.24-8.85-13.49l-26.89-23.31a4.31,4.31,0,0,1-1.58-2.62,3.51,3.51,0,0,1,1-2.8l2.26-2.6a3.49,3.49,0,0,1,2.61-1.36,4.15,4.15,0,0,1,2.83,1.17l46.73,40.52a4.09,4.09,0,0,1,1.58,2.66,3.54,3.54,0,0,1-1,2.75l-1.81,2.1a3.6,3.6,0,0,1-2.59,1.38,4.17,4.17,0,0,1-2.86-1.19l-4.38-3.8q4.17,11.67-3.61,20.65A31.9,31.9,0,0,1,1114.58,1243.16Z"/><path class="cls-1" d="M989.27,1267.81a39.64,39.64,0,0,1,29-24,34.35,34.35,0,0,1,18.5,1.64,38.1,38.1,0,0,1,23.51,28.41,34.46,34.46,0,0,1-1.84,18.48,39.69,39.69,0,0,1-29,24,34.45,34.45,0,0,1-18.5-1.65,38.11,38.11,0,0,1-23.51-28.4A34.51,34.51,0,0,1,989.27,1267.81Zm36.8-14.11q-10.35-1.17-19,6t-9.47,17.57q-.78,10.38,6.49,19.17t17.62,10q10.35,1.17,19-6t9.43-17.53q.84-10.43-6.44-19.22T1026.07,1253.7Z"/><path class="cls-1" d="M979.69,1388.09q-4.1.45-4.63-3.17l-.37-1.78q-.37-3.72,3.56-4.4a14.77,14.77,0,0,0,6.62-2.37,12.73,12.73,0,0,0,5.75-8.29q1-5.14-3-11.28l-2.7-4-14.61,9.73a4,4,0,0,1-2.88.74,3.57,3.57,0,0,1-2.39-1.7l-.93-1.4a3.56,3.56,0,0,1-.64-2.86,3.93,3.93,0,0,1,1.79-2.37l14.61-9.73-31.42-47.22a4.25,4.25,0,0,1-.83-2.94,3.49,3.49,0,0,1,1.71-2.43l2.92-2a3.5,3.5,0,0,1,2.88-.61,4.12,4.12,0,0,1,2.42,1.87l31.43,47.22,6.35-4.22a4.18,4.18,0,0,1,3-.82,3.57,3.57,0,0,1,2.39,1.7l.93,1.41a3.54,3.54,0,0,1,.65,2.85,4.17,4.17,0,0,1-1.91,2.45l-6.35,4.22,2.69,4a27.57,27.57,0,0,1,4.36,10.2,19.64,19.64,0,0,1-.34,9.36,24.42,24.42,0,0,1-3.92,7.71,25.91,25.91,0,0,1-6.38,6A22.87,22.87,0,0,1,979.69,1388.09Z"/><path class="cls-1" d="M882.4,1332.68a3.76,3.76,0,0,1,3.08-.15,4.17,4.17,0,0,1,2.18,2.31L921,1409.36q1.68,3.75-1.89,5.36l-3.15,1.41c-2.34,1-4.07.32-5.19-2.19l-14.54-32.48-46.35,20.75,14.54,32.48q1.68,3.75-1.83,5.33l-3.27,1.46q-3.45,1.55-5.13-2.21l-33.36-74.52a4.32,4.32,0,0,1-.33-3.14,3.49,3.49,0,0,1,2.1-2.16l3.27-1.47a3.66,3.66,0,0,1,3-.14,4.27,4.27,0,0,1,2.15,2.33l14.82,33.1,46.35-20.75-14.82-33.1a4.22,4.22,0,0,1-.3-3.15,3.62,3.62,0,0,1,2.13-2.18Z"/><path class="cls-1" d="M789.44,1444.64q-13.17,3.85-22.52-1.08t-13.19-18l-10.81-36.94q-1.12-3.82,2.31-4.83l2.66-.77a3.43,3.43,0,0,1,3,.26,4.21,4.21,0,0,1,1.72,2.52l1.44,4.92a31,31,0,0,1,8-10.61,31.39,31.39,0,0,1,11.83-6.45q11.61-3.41,20.4.46t11.67,13.65a20.25,20.25,0,0,1-3,18.34q-6,8.36-18.6,12.06a48.06,48.06,0,0,1-21.41,1.13l1.54,5.25a15.4,15.4,0,0,0,8.4,10.2q6.29,3,14.45.56a33.62,33.62,0,0,0,18-12.73c1.44-2,3.22-2.17,5.32-.58l1.15.79a4.39,4.39,0,0,1,1.78,3.07,4.43,4.43,0,0,1-1.15,3.15,47.48,47.48,0,0,1-10.7,10.1A45.36,45.36,0,0,1,789.44,1444.64Zm-14.16-61.57a27.74,27.74,0,0,0-9.63,5,20.43,20.43,0,0,0-6.25,8.2,14.32,14.32,0,0,0-.55,9.8l1.23,4.21q11.89,2.16,21.29-.6,8.1-2.37,12-7.61a12.39,12.39,0,0,0,2.06-11.34,11.18,11.18,0,0,0-7.18-7.71Q782.67,1380.91,775.28,1383.07Z"/><path class="cls-1" d="M697.52,1465.13q-12.74,2-21.56-4.65t-10.82-19.35l-6-37.61a4.27,4.27,0,0,1,.48-3,3.47,3.47,0,0,1,2.56-1.5l3.4-.54a3.62,3.62,0,0,1,2.91.64,4,4,0,0,1,1.45,2.71l5.8,36.61q1.44,9,7.42,13.59t14.67,3.22q8.86-1.41,13.64-7.74t3.36-15.26l-5.8-36.62a4.24,4.24,0,0,1,.48-3,3.47,3.47,0,0,1,2.56-1.5l3.4-.54a3.47,3.47,0,0,1,2.87.64,4.11,4.11,0,0,1,1.42,2.71l9.68,61.09a4.16,4.16,0,0,1-.5,3.06,3.56,3.56,0,0,1-2.54,1.46l-2.73.43a3.57,3.57,0,0,1-2.87-.6,4.19,4.19,0,0,1-1.43-2.75l-.88-5.6Q712.46,1462.76,697.52,1465.13Z"/><path class="cls-1" d="M585.21,1405.83a39.69,39.69,0,0,1,37.67-.79,34.46,34.46,0,0,1,13.48,12.78,38.07,38.07,0,0,1,.78,36.86A34.38,34.38,0,0,1,624.21,1468a39.65,39.65,0,0,1-37.67.8A34.37,34.37,0,0,1,573.07,1456a38.07,38.07,0,0,1-.78-36.86A34.38,34.38,0,0,1,585.21,1405.83Zm37.6,11.81q-7.38-7.35-18.66-7.11t-18.34,7.89q-7.06,7.65-6.82,19t7.62,18.75q7.38,7.35,18.66,7.11t18.27-7.89q7.14-7.65,6.89-19T622.81,1417.64Z"/><path class="cls-1" d="M544,1400.7a3.48,3.48,0,0,1,2.64,1.29,4.18,4.18,0,0,1,.75,3l-5,61.65a4.1,4.1,0,0,1-1.21,2.85,3.55,3.55,0,0,1-2.81.83L535,1470a3.7,3.7,0,0,1-2.68-1.26,4.06,4.06,0,0,1-.77-3l5-61.66a4.07,4.07,0,0,1,1.24-2.81,3.62,3.62,0,0,1,2.85-.86Zm-14.69,84.14a8.72,8.72,0,0,1,12.12,1A8.58,8.58,0,1,1,528.34,1497a8.6,8.6,0,0,1,.94-12.12Z"/><path class="cls-1" d="M1158.21,488.64C1052.34,251.58,795.06,103.53,540.34,127.13a17.39,17.39,0,0,0-15.66,16.6v.05a17,17,0,0,0,18.45,17.79,568,568,0,0,1,198,17.28c171.63,46,316,167.21,386.11,324.27,48.64,108.93,60,237.76,32,362.77-27.78,123.87-92.3,236.69-181.67,317.69-69.34,62.85-154.4,108.49-246,132-81.14,20.82-164.51,23.44-243.14,7.85A17.13,17.13,0,0,0,468.61,1336h0a17.12,17.12,0,0,0,13,21.36C664,1393.51,860.3,1335.9,1000,1209.26,1194.32,1033.17,1265.82,729.6,1158.21,488.64Z"/><path class="cls-2" d="M632.7,787.58a76.63,76.63,0,0,1-15.32-6.18c-11-5.89-20.79-14.23-29.09-23.56-2-2.24-1.73-3.88.15-5.88q11.63-12.36,23.15-24.84c2.5-2.72,4.38-.92,6.44.47,12.39,8.32,24.55,17.54,35,28.27,3.72,3.83,7.49,7.78,10.06,12.5,3.15,5.79,4,13.77-2,18C653.15,792,641.35,790,632.7,787.58Z"/><path class="cls-2" d="M675.4,668.12c-4.59,12.53-17.35,21.19-28.87,26.71-9.81,4.72-20.3,7.94-30.52,11.64a1.84,1.84,0,0,1-2.71-1.19c-4.57-11.24-9.59-22.3-14.47-33.4-1.51-3.43,1.38-4.78,3.23-5.82,12.31-6.92,25-13.76,39.09-16.11,10.87-1.81,24.39-.71,32.75,7.28C677,660.15,676.77,664.4,675.4,668.12Z"/><path class="cls-2" d="M552.15,658.75q2.48-9.63,4.86-19.28c1.07-4.35,1.65-13.15,5.84-15.83,5.26-3.36,17.75-.15,22,4.68,3.3,3.76-3.65,12.42-5.53,15.9-4.09,7.57-8,15.23-11.57,23-10,21.71-19.37,44.46-21.65,68.56-.56,5.87-.66,12.2,5.55,15,3.05,1.37,4,4.09-.32,6.28a80.11,80.11,0,0,0-13.07,8c-3,2.34-3.5,1.09-4.79-1.44-2.58-5.06-5.57-9.89-8.41-14.81-.7-1.22-1.44-2.46-.61-3.85,1-1.66,2.42-.68,3.68-.41,5.69,1.23,7.47-1,7.69-6.81.68-18.24,5-36.06,9.68-53.62Q548.91,671.5,552.15,658.75Z"/><path class="cls-2" d="M603.25,712.66c-1.52.56-1,.22-5.93,1.29,6.47,7.71,8,8.34,1.31,15.92q-6.95,7.95-14.3,15.54c-1.06,1.11-1.88,2.66-4.41,2.28-8.15-1.21-19.25-13.15-20.59-21.43-.88-5.46,2.59-8.35,4.66-12.23,1.19-2.24,3.12-4,2.14-7.36-3.7-12.78,0-20.69,11.68-26.38,10.28-5,11-5,16.73,5,4,6.88,7.5,14,11.15,21.11A4.47,4.47,0,0,1,603.25,712.66Z"/><path class="cls-2" d="M530.12,632.84c1.42,3.17-4.94,1.51-6.36,1.3-2.47-.38-5.28.48-5.87,3.34-.29,1.4-.47,2.84-.68,4.25-.69,4.8-1.31,9.61-2,14.41-1.91,13.74-4.16,27.6-8.91,40.69-3.59,9.91-9.08,20-18.37,25.23a28,28,0,0,1-8.58,3.13c-17.75,3.42-34.93-3.83-43.46-20.19-11-21.11-12.08-44.51-14.24-68-1.73-18.91-7.33-46.43-28.4-51.22-8.41-1.92-9.23,6.28-10.3,13.06a5.79,5.79,0,0,1-4.91,5c-4.16.43-5.57-4.61-5.22-8.48a24.67,24.67,0,0,1,5.4-13.6c7.69-9.18,19.51-7.39,28.16-1.13,22.33,16.13,26.84,46.64,29.73,72.92,2.08,18.88,3.81,39.61,19.39,52,7.78,6.18,19.4,8.42,28.46,3.36,10.46-5.86,14.87-18,18.37-29a170.88,170.88,0,0,0,4.48-17.12c1.19-5.78,3.33-21.27,3.2-23.17a8.55,8.55,0,0,0-1.68-4.8c-2.53-3.17-7-2.66-10.36-4a2.27,2.27,0,0,1-.77-3.8,72.59,72.59,0,0,1,6.42-6.23c2.1-1.89,4-4.07,6.16-5.88,2.32-2,5.1-2.13,7.31-.13C522.57,619.66,528.62,629.47,530.12,632.84Z"/><path class="cls-2" d="M372.1,706.31c-3.45,6.36-8.66,13.09-16.32,14.2-8.09,1.16-15.79-4.09-19.3-11.15-3.87-7.75-4-16.51-3-24.92a125.13,125.13,0,0,1,5.21-24.27c1.15-3.61,3.72-15.06,9.5-13.61,12.11,3.06,24.28,5.94,36.36,9.13,8.62,2.27,2.09,16.78.32,21.81A200.1,200.1,0,0,1,372.1,706.31Z"/><path class="cls-2" d="M366.12,643.68c-5-1.28-10-2.64-15-3.82-7.29-1.71-2.83-10.43,0-14.37A40.22,40.22,0,0,1,367.89,612c4.79-2,9.38-1,12.79,2.94a36,36,0,0,1,8.48,19.53c.54,5,.58,15.75-7.39,13.28C376.63,646.18,371.34,645,366.12,643.68Z"/><path class="cls-2" d="M814.94,740.88a2.06,2.06,0,0,1,1.35-.27c.9.2,1.06,1.35,1.21,2.09.19.95,1.58,17,1.53,18.69a2.11,2.11,0,0,1-2.53,2.2c-5.83-2.12-19.3-7-20-7.67a2.37,2.37,0,0,1-.72-2.56c.69-1.64,3.54-1.69,3.54-3.73a2.5,2.5,0,0,0-.76-1.71c-6.71-6.88-14.36-13.1-23.05-17.33-7.58-3.68-17.82-7.34-26.18-4.16-10.58,4-2.06,14.87,3.49,19.07,7.7,5.8,17.46,8.84,26.42,12.09,17.25,6.26,39.63,14.77,44.42,34.82a31.74,31.74,0,0,1-.82,17.62,31.37,31.37,0,0,1-12.15,15.82c-5.49,3.6-12.87,4.58-19.29,4.44-1.58,0-3.16-.14-4.73-.31a49,49,0,0,1-18.38-5.44c-4.31-2.37-3.45-7.5,1.71-7.79,3.57-.19,7,1.53,10.38,2.39a40.21,40.21,0,0,0,11.9,1.41c7.62-.38,15-3.91,18.54-10.87,3.94-7.64,2.19-16.87-2.68-23.65-5.6-7.81-14.85-11.84-23.58-15.07-9.86-3.65-20-6.66-29.41-11.39-10.25-5.14-26.11-13.08-26.93-26.25-1-15.64,15.38-20.1,27.83-19.78,18.52.47,36.85,10.78,48,25.44,1.59,2.09,3.22,6.09,6.48,4.41C812,742.62,813.42,741.65,814.94,740.88Z"/><path class="cls-2" d="M708.84,757.38a47.65,47.65,0,0,1,14.56,7.41c7.21,5.26,14.23,12.32,18.8,20,2,3.39-2.49,6.17-4.8,7.78a68.29,68.29,0,0,0-9.87,8.34c-2.71,2.77-5.55,5.67-9.22,2.45-7.41-6.49-15.46-12.61-21.47-20.51-4-5.19-8.59-13.19-6.64-19.94C692.48,755,702.56,755.6,708.84,757.38Z"/><path class="cls-2" d="M742.65,817.74a36,36,0,0,1-6.2-2.73c-2.33-1.3-5.87-2.89-6.08-6-.13-1.9,2.59-3.58,3.79-4.71,3.64-3.42,7.22-6.88,10.73-10.44,2.47-2.51,4.08-1.22,6.16,1,4.3,4.52,9.59,10,9.62,16.68,0,6-7.18,7.85-12.08,7.46A25.76,25.76,0,0,1,742.65,817.74Z"/><path class="cls-2" d="M225.48,579.76c-1.22,5.87-2.88,12.31-6,17.47-3,4.92-8,4.26-12.92,3.24-10.69-2.25-21.4-4.4-32.09-6.68-2-.43-2.66-1.34-2.56-3.37.39-8.25.44-16.63,2.6-24.66,4.24-15.82,15.18-28.36,29.38-36.22a10.48,10.48,0,0,1,7.07-1.52c6.12,1.29,10.07,9.86,12.16,15C227.69,554.41,228,567.5,225.48,579.76Z"/><path class="cls-2" d="M183.83,603.3l13.6,5c3.93,1.45,9.55,2.45,12.72,5.26,4.68,4.13-1.2,12.2-4.29,15.4-7.56,7.85-22.87,12.18-30.47,1.87-4.44-6-3.78-15-3.29-22.09s5.77-7.67,11.51-5.55Z"/><path class="cls-2" d="M334.2,571.85c-2.75-5.81-9.66-7.1-15.47-6.15-5.13.84-9.22,4.4-12.6,8.15-9.68,10.74-15.85,23.9-22.95,36.36-.71,1.25-1.85,1.16-3,.86q-24-6.36-48-12.75c-1.91-.51-5.76,8.37-6.49,9.67-1.63,2.93-.17,4.45,2.81,5.27,7.79,2.17,31.15,9,35,10.28,3.27,1.07,6.53,1.84,7.52,5.59.74,2.81-5.54,47.38-7.55,50-1.62,2.1-4.19,2.18-6.6,1.57a1.44,1.44,0,0,0-1.59,2.12l8,13.56a2.21,2.21,0,0,0,3.05.79l12.76-8.79a1.11,1.11,0,0,0-.29-2c-3.27-.84-6.48-1.91-5.25-6.19,2.19-7.6,4.93-15,7.25-22.57q3.6-11.75,6.39-23.7c1-4.43,3.42-6.86,7.69-8.49,15.45-5.79,28.61-16.24,36-31.18C334.14,587.87,337.47,578.73,334.2,571.85Z"/></svg>